<mxfile host="app.diagrams.net" modified="2023-07-19T02:25:12.692Z" agent="Mozilla/5.0 (Windows NT 10.0; Win64; x64) AppleWebKit/537.36 (KHTML, like Gecko) Chrome/104.0.0.0 Safari/537.36" version="21.6.3" etag="rNCbrSqC9YLqCMCd-HUk" type="github">
  <diagram name="Page-1" id="I-RFH3wWV6iypiBYz4XE">
    <mxGraphModel>
      <root>
        <mxCell id="0" />
        <mxCell id="1" parent="0" />
      </root>
    </mxGraphModel>
  </diagram>
</mxfile>
